<svg xmlns="http://www.w3.org/2000/svg" viewBox="0 0 511.8 379.96"><defs><style>.cls-1{fill:#002040;}.cls-2{fill:#7fc366;}.cls-3{fill:#fdfdfd;}.cls-4{fill:#0eb493;}.cls-5{fill:#016f6d;}.cls-6{fill:#fbfbfb;}.cls-7{fill:#fafafa;}.cls-8{fill:#d9fb54;}.cls-9{fill:#e3fa96;}</style></defs><g id="Camada_2" data-name="Camada 2"><g id="Camada_1-2" data-name="Camada 1"><path class="cls-1" d="M0,311.88c1.71-.57,1.2-2.24,1.5-3.38C6.38,290,17.34,276.59,34.85,268.66a19.72,19.72,0,0,0,1.88-1.14c-5.1-6.74-8.7-14-10-22.44-4.08-25.91,14.47-50,40.57-52.35a9.43,9.43,0,0,0,7.45-3.9c6.09-7.89,14.1-13.45,23.56-17.42-7.16-9.21-10.92-19.25-10.59-30.71.69-23.56,17.78-41.83,41.81-44.32A8.42,8.42,0,0,0,136,92.82a51.2,51.2,0,0,1,19.29-15.47c3.36-1.55,4.26-2.33,1.8-6C147,56,146,39.75,154.85,23.65c8.78-15.9,22.85-24,41-23.5,17.37.5,30.56,9,38.58,24.31C242.66,40.16,241.8,56,232,70.82c-2.62,4-2.05,5,1.94,6.76a49.67,49.67,0,0,1,19.49,16c1.94,2.61,2.86,2.83,4.92,0A50.64,50.64,0,0,1,279.16,77c3.54-1.52,2.93-2.62,1.15-5.2C263.38,47.17,273.66,13.56,301.24,3A45,45,0,0,1,352.87,17.3,44.89,44.89,0,0,1,355,70.81c-2.65,3.85-2.18,5,1.89,6.77a50.24,50.24,0,0,1,19.51,16,6.27,6.27,0,0,0,4.87,2.72c37.72,4,55.13,42.5,33.33,73.63-.27.4-.46.86-.82,1.55a58.69,58.69,0,0,1,24.88,19.28,4.42,4.42,0,0,0,3.87,1.76c35,1.14,57.26,43,33.12,74.22a4.69,4.69,0,0,0-.43,1c16.93,7.39,28.5,19.72,34.2,37.42.83,2.58.63,5.49,2.41,7.77v60c-2.9,5.42-7.4,7.1-13.51,7.1q-242.39-.18-484.77,0c-6.1,0-10.63-1.64-13.52-7.1Zm443.11-48.54c13.51-1.88,22.94-12.68,22.63-25.92-.3-13-10.24-23.67-22.83-24.62-10.32-1.35-18.26,2.84-23.75,11.24-5.88,9-6,18.62-.15,27.69C424.54,260.37,432.63,264.57,443.11,263.34Zm-122.95,0c13.51-1.88,22.93-12.68,22.63-25.92-.3-13-10.24-23.67-22.83-24.62-10.33-1.35-18.26,2.84-23.75,11.24-5.88,9-6,18.62-.15,27.69C301.59,260.37,309.67,264.57,320.16,263.34ZM197,212.8c-10.33-1.35-18.26,2.84-23.75,11.24-5.89,9-6,18.62-.15,27.69,5.53,8.64,13.61,12.84,24.1,11.61,13.5-1.88,22.93-12.68,22.62-25.92C219.53,224.46,209.59,213.75,197,212.8ZM74.25,263.34c13.51-1.88,22.94-12.68,22.63-25.92-.3-13-10.24-23.67-22.83-24.62C63.73,211.45,55.8,215.64,50.31,224c-5.88,9-6,18.62-.15,27.69C55.68,260.36,63.76,264.57,74.25,263.34ZM320.82,70.82a25.19,25.19,0,0,0,22-24.91c.13-13.18-9.14-23.58-22.91-25.69-10.67-.92-18.83,3.38-24.23,12.41s-5.12,18.52.74,27.26C302.12,68.44,310.36,72.35,320.82,70.82ZM136,167c12.34-1,22-11.65,22.25-24.57.25-13.39-9.1-24.28-22.11-25.73-10.46-1.57-18.57,2.55-24.19,11-6,9.12-6.08,18.9-.1,28.07C117.39,164.33,125.45,168.57,136,167Zm123.09-50.3c-10.46-1.57-18.56,2.55-24.19,11-6,9.12-6.08,18.9-.1,28.07,5.58,8.55,13.63,12.79,24.15,11.19,12.34-1,22-11.65,22.25-24.57C281.42,129,272.07,118.12,259.06,116.67ZM381.87,167c12.34-1,22-11.65,22.25-24.57.25-13.39-9.1-24.28-22.1-25.73-10.46-1.57-18.57,2.55-24.19,11-6,9.12-6.09,18.9-.11,28.07C363.3,164.33,371.36,168.57,381.87,167Zm-184-96.15a25.18,25.18,0,0,0,22-24.91c.14-13.18-9.14-23.58-22.91-25.69-10.66-.91-18.82,3.38-24.23,12.41s-5.12,18.52.74,27.26C179.17,68.43,187.41,72.35,197.87,70.82ZM375.05,284.17c2.1.42,1.93,6.74,5.13,2.89a68.32,68.32,0,0,1,25.39-19.41c-17.31-25.81-13.65-49.17,10.58-68.14,2-1.6,1.68-2.36,0-3.61-6.66-5-13.84-8.46-22.43-8a219.41,219.41,0,0,0-34.87.21c-6.36.61-12,3.68-17.1,7.58-2.29,1.74-2.12,2.6.3,4.16A43.42,43.42,0,0,1,360,222.49c5.77,16.42,2.48,31.32-7.9,45.16A61.68,61.68,0,0,1,375.05,284.17ZM267.9,187.47c-8,0-16,.06-23.95,0a39.24,39.24,0,0,0-21.37,5.59c-6.64,4.1-6.64,4.1-.68,8.68.92.71,1.81,1.47,2.68,2.24,15.92,14.11,22.26,40.72,4.43,63.78,8.55,3,15.19,8.74,21.89,14.41.35,2.13,2.4,3.06,3.37,4.77s1.93,1.89,3.24.1c6.43-8.79,15-14.93,24.77-19.25,0-.41,0-.6,0-.7-18-23.08-11-54,10.83-67.57,2.74-1.71,1.29-2.75-.28-3.95A38.68,38.68,0,0,0,267.9,187.47Zm43.18-2.32a43,43,0,0,1,3.8,4.55c1.81,2.84,3,2.58,5,0a54.84,54.84,0,0,1,21.28-16.86c1.81-.8,3.26-1.31,1.38-3.78-15.5-20.37-10.67-51,11.43-65.32,2.85-1.84,2.2-2.87,0-4.55a38,38,0,0,0-24.15-7.85c-8.64,0-17.28-.23-25.91-.07a37.49,37.49,0,0,0-26,10.49,52.46,52.46,0,0,1,12.59,10.53c13.54,16.19,14.47,38.31,2.09,56.26-1.73,2.5-1.5,3.25,1.16,4.37C300.35,175.7,306,180.11,311.08,185.15Zm-123.88-.94c1.83,2.14,3.74,4.21,5.47,6.43,1.17,1.51,2,2,3.37.17a58.74,58.74,0,0,1,24.85-19.26c-17-29.48-14-45.79,12.57-70C226,94.3,217.2,91.11,205.34,91.29c-8,0-16-.16-24-.05-10,.15-18.83,3.28-26.2,10.27,25.62,16.12,29.92,47.28,12.62,70A60.89,60.89,0,0,1,187.2,184.21ZM125.73,280c2,2.46,4,4.87,5.87,7.38.92,1.22,1.59,1.5,2.61.1,6.53-9,15.17-15.29,25.2-19.7a5.67,5.67,0,0,0-.48-1.24c-17.48-22.61-10.6-53.23,11.1-66.91,2.52-1.59,1.74-2.54,0-3.92a38.63,38.63,0,0,0-27-8.08c-7.81,0-15.63-.11-23.44-.1A38.32,38.32,0,0,0,96.79,195c-2.77,2-3.41,2.93,0,5.37,15.54,11.16,22.12,26.36,19.31,45.45-1.2,8.16-5,15.2-10.08,22C113.79,270.46,119.63,275.42,125.73,280Zm320,4c-6.64-.07-13.29-.31-19.93-.18-17.77.37-33.08,13-36,30.69-2.36,14.31-.47,28.86-.95,43.29-.08,2.47,1.54,2.05,3,2.05l35.89-.18c17,.06,33.93.18,50.89.14,4.27,0,9.87,1.88,12.45-.8s.38-8.23.82-12.49c.32-3.17-.89-3.91-3.9-3.85-9,.19-18,.21-26.95,0-6-.14-10.23-4.57-10.18-10.1s4.18-9.65,10.38-9.79,12.64-.05,19-.05c13.23,0,13.93-1,9.43-13.71-.11-.31-.29-.6-.4-.91C482.58,290.93,467.21,282.4,445.69,284ZM58.75,359.69c20.29.06,40.58,0,60.86.24,3.19,0,3.4-1.35,3.38-3.86-.1-11.64.09-23.29-.1-34.93a37,37,0,0,0-11.26-26.36C101.89,285,89.86,282.72,76.71,284c-7.62,0-15.28-.52-22.87,0C36.27,285.26,21.06,301.31,20,318.9c-.17,3,.46,4,3.68,3.94,8.29-.25,16.59,0,24.88-.14a14.51,14.51,0,0,1,10.14,3.2c2.95,4.7,3.2,9.32-.46,13.8A13.13,13.13,0,0,1,49,342.78c-5.16-.12-10.32-.15-15.48,0-4.42.14-10.49-2-12.81.88s-.66,8.55-.76,13a2.78,2.78,0,0,1,0,.5c-.37,2.28.73,2.76,2.82,2.73C34.79,359.76,46.77,359.75,58.75,359.69Zm123,0c20.27.06,40.54.07,60.81.23,2.6,0,3.39-.68,3.36-3.33-.15-12.13,0-24.26-.13-36.39a34,34,0,0,0-2.56-12.12c-6.65-17.16-22-25.64-43.5-24.07-6.64-.06-13.28-.3-19.92-.17-17.77.37-33.08,13.05-36,30.69-2.35,14.31-.47,28.86-.94,43.29-.09,2.46,1.53,2.05,3,2.05ZM322.64,284c-6.66-.06-13.32-.3-20-.15-17.56.39-32.91,13.07-35.81,30.43-2.4,14.34-.47,28.93-1,43.39-.09,2.36,1.26,2.22,2.84,2.21l36-.18c20.29.06,40.58.07,60.87.22,2.6,0,3.4-.66,3.36-3.32-.15-12.14.11-24.29-.17-36.43a36,36,0,0,0-9.48-23.55C349.43,285.51,336.78,282.58,322.64,284Z"/><path class="cls-2" d="M322.64,284c14.14-1.41,26.79,1.52,36.62,12.62a36,36,0,0,1,9.48,23.55c.28,12.14,0,24.29.17,36.43,0,2.66-.76,3.34-3.36,3.32-20.29-.15-40.58-.16-60.87-.22,0-11.79.29-23.6,0-35.38C304.2,307.89,310.4,294.64,322.64,284Z"/><path class="cls-2" d="M199.77,284c21.54-1.57,36.85,6.91,43.5,24.07a34,34,0,0,1,2.56,12.12c.09,12.13,0,24.26.13,36.39,0,2.65-.76,3.35-3.36,3.33-20.27-.16-40.54-.17-60.81-.23,0-12.3.15-24.6,0-36.9C181.53,306.9,187.9,294.2,199.77,284Z"/><path class="cls-2" d="M58.25,339.7c3.66-4.48,3.41-9.1.47-13.8q-1.22-25.35,18-41.91c13.15-1.27,25.18,1,34.92,10.79a37,37,0,0,1,11.26,26.36c.19,11.64,0,23.29.1,34.93,0,2.51-.19,3.89-3.38,3.86-20.28-.2-40.57-.18-60.86-.24C58.47,353,59.39,346.34,58.25,339.7Zm21.46-16.9A9.7,9.7,0,0,0,69.87,333a10,10,0,0,0,9.89,9.75,10.21,10.21,0,0,0,10.18-10.05A9.88,9.88,0,0,0,79.71,322.8Z"/><path class="cls-2" d="M445.69,284c21.52-1.61,36.89,6.92,43.51,24.12.11.31.29.6.4.91,4.5,12.69,3.8,13.71-9.43,13.71-6.32,0-12.64-.09-19,.05s-10.32,4.15-10.38,9.79,4.17,10,10.18,10.1c9,.2,18,.18,26.95,0,3-.06,4.22.68,3.9,3.85-.44,4.26,1.74,9.84-.82,12.49s-8.18.79-12.45.8c-17,0-33.93-.08-50.89-.14l0-17.65c9.63,2.89,15.29-4.61,14.11-11.19-1.06-5.92-5.85-8.59-13.91-7.65C426.94,307,433.82,294.37,445.69,284Z"/><path class="cls-3" d="M322.64,284c-12.24,10.65-18.44,23.9-18,40.32.32,11.78,0,23.59,0,35.38l-36,.18c-1.58,0-2.93.15-2.84-2.21.52-14.46-1.41-29.05,1-43.39,2.9-17.36,18.25-30,35.81-30.43C309.32,283.69,316,283.93,322.64,284Z"/><path class="cls-3" d="M199.77,284c-11.87,10.2-18.24,22.9-18,38.78.18,12.3,0,24.6,0,36.9l-35.89.18c-1.44,0-3.06.41-3-2.05.47-14.43-1.41-29,.94-43.29,2.9-17.64,18.21-30.32,36-30.69C186.49,283.7,193.13,283.94,199.77,284Z"/><path class="cls-3" d="M445.69,284c-11.87,10.36-18.75,23-17.76,39.18-8.22,6.1-8.28,12.48-.2,18.84l0,17.65-35.89.18c-1.44,0-3.06.42-3-2.05.48-14.43-1.41-29,.95-43.29,2.9-17.65,18.21-30.32,36-30.69C432.4,283.7,439.05,283.94,445.69,284Z"/><path class="cls-4" d="M143,187.61a38.63,38.63,0,0,1,27,8.08c1.78,1.38,2.56,2.33,0,3.92-21.7,13.68-28.58,44.3-11.1,66.91a5.67,5.67,0,0,1,.48,1.24c-10,4.41-18.67,10.74-25.2,19.7-1,1.4-1.69,1.12-2.61-.1-1.9-2.51-3.91-4.92-5.87-7.38,0-14.26.48-28.55-.24-42.78-1-18.94,2.47-36,17.36-49.12C143,188,143,187.77,143,187.61Z"/><path class="cls-5" d="M205.34,91.29c11.86-.18,20.63,3,28.12,10.24-26.58,24.23-29.55,40.54-12.57,70A58.74,58.74,0,0,0,196,190.81c-1.35,1.81-2.2,1.34-3.37-.17-1.73-2.22-3.64-4.29-5.47-6.43,1.42-1.57.83-3.49.83-5.25.05-16.29-.08-32.59.07-48.88a49.27,49.27,0,0,1,15.13-35.73C204.12,93.47,205.57,93,205.34,91.29Z"/><path class="cls-5" d="M329.81,91.33A38,38,0,0,1,354,99.18c2.23,1.68,2.88,2.71,0,4.55-22.1,14.31-26.93,45-11.43,65.32,1.88,2.47.43,3-1.38,3.78a54.84,54.84,0,0,0-21.28,16.86c-2,2.59-3.21,2.85-5,0a43,43,0,0,0-3.8-4.55c1.2-1.65.62-3.54.63-5.3.05-16.26,0-32.51,0-48.77a58.66,58.66,0,0,1,.7-10.4C314.62,108.72,321,99.34,329.81,91.33Z"/><path class="cls-4" d="M267.9,187.47a38.68,38.68,0,0,1,24.88,8.11c1.57,1.2,3,2.24.28,3.95-21.8,13.59-28.85,44.49-10.83,67.57.07.1,0,.29,0,.7-9.79,4.32-18.34,10.46-24.77,19.25-1.31,1.79-2.24,1.65-3.24-.1s-3-2.64-3.37-4.77c0-18.45,0-36.9-.1-55.34a48.29,48.29,0,0,1,15-36.2C266.7,189.74,268,189.08,267.9,187.47Z"/><path class="cls-4" d="M393.73,187.9c8.59-.46,15.77,3,22.43,8,1.67,1.25,2,2,0,3.61-24.23,19-27.89,42.33-10.58,68.14a68.32,68.32,0,0,0-25.39,19.41c-3.2,3.85-3-2.47-5.13-2.9,1.26-1.62.71-3.51.71-5.28.05-16.92.27-33.83,0-50.74C375.43,211.78,381.46,198.51,393.73,187.9Z"/><path class="cls-6" d="M393.73,187.9c-12.27,10.61-18.3,23.88-18,40.24.31,16.91.09,33.82,0,50.74,0,1.77.55,3.66-.71,5.28a61.76,61.76,0,0,0-23-16.51c10.38-13.84,13.67-28.74,7.9-45.16a43.42,43.42,0,0,0-17.9-22.64c-2.42-1.56-2.59-2.42-.3-4.16,5.12-3.9,10.74-7,17.1-7.58A219.41,219.41,0,0,1,393.73,187.9Z"/><path class="cls-6" d="M267.9,187.47c.12,1.61-1.2,2.27-2.12,3.17a48.29,48.29,0,0,0-15,36.2c.14,18.44.07,36.89.1,55.34-6.7-5.67-13.34-11.42-21.89-14.41,17.83-23.06,11.49-49.67-4.43-63.78-.87-.77-1.76-1.53-2.68-2.24-6-4.58-6-4.58.68-8.68A39.24,39.24,0,0,1,244,187.48C251.94,187.53,259.92,187.48,267.9,187.47Z"/><path class="cls-7" d="M329.81,91.33c-8.78,8-15.19,17.39-17.36,29.35a58.66,58.66,0,0,0-.7,10.4c0,16.26,0,32.51,0,48.77,0,1.76.57,3.65-.63,5.3-5.12-5-10.73-9.45-17.39-12.24-2.66-1.12-2.89-1.87-1.16-4.37,12.38-17.95,11.45-40.07-2.09-56.26a52.46,52.46,0,0,0-12.59-10.53,37.49,37.49,0,0,1,26-10.49C312.53,91.1,321.17,91.29,329.81,91.33Z"/><path class="cls-6" d="M205.34,91.29c.23,1.67-1.22,2.18-2.11,3.06a49.27,49.27,0,0,0-15.13,35.73c-.15,16.29,0,32.59-.07,48.88,0,1.76.59,3.68-.83,5.25a60.89,60.89,0,0,0-19.39-12.69c17.3-22.73,13-53.89-12.62-70,7.37-7,16.23-10.12,26.2-10.27C189.37,91.13,197.36,91.27,205.34,91.29Z"/><path class="cls-6" d="M143,187.61c-.06.16-.06.37-.17.47-14.89,13.16-18.32,30.18-17.36,49.12.72,14.23.21,28.52.24,42.78-6.1-4.56-11.94-9.52-19.72-12.17,5.11-6.83,8.88-13.87,10.08-22,2.81-19.09-3.77-34.29-19.31-45.45-3.4-2.44-2.76-3.38,0-5.37a38.32,38.32,0,0,1,22.79-7.45C127.39,187.5,135.21,187.58,143,187.61Z"/><path class="cls-6" d="M76.71,284q-19.2,16.58-18,41.91a14.55,14.55,0,0,0-10.15-3.2c-8.29.17-16.59-.11-24.88.14-3.22.09-3.85-.93-3.68-3.94,1-17.59,16.26-33.64,33.83-34.89C61.43,283.47,69.09,284,76.71,284Z"/><path class="cls-8" d="M196.92,20.22c13.77,2.11,23.05,12.51,22.91,25.69a25.18,25.18,0,0,1-22,24.91c-11.75-14-13.44-28.56-5.18-43.42C194,25,196.29,23.07,196.92,20.22Z"/><path class="cls-8" d="M382,116.67c13,1.45,22.35,12.34,22.1,25.73-.24,12.92-9.91,23.6-22.25,24.57-6.28-7.59-10.29-16.09-10-26.16C372.21,131.52,376.21,123.7,382,116.67Z"/><path class="cls-8" d="M259.06,116.67c13,1.45,22.36,12.34,22.11,25.73-.24,12.92-9.91,23.6-22.25,24.57-6.29-7.59-10.29-16.09-10-26.16C249.25,131.52,253.25,123.7,259.06,116.67Z"/><path class="cls-8" d="M136.11,116.67c13,1.45,22.36,12.34,22.11,25.73C158,155.32,148.31,166,136,167c-6.29-7.59-10.29-16.09-10-26.16C126.3,131.52,130.3,123.7,136.11,116.67Z"/><path class="cls-8" d="M319.88,20.22c13.77,2.11,23,12.51,22.91,25.69a25.19,25.19,0,0,1-22,24.91c-11.74-14-13.44-28.56-5.18-43.42C317,25,319.25,23.07,319.88,20.22Z"/><path class="cls-8" d="M74.05,212.8c12.59.95,22.53,11.66,22.83,24.62.31,13.24-9.12,24-22.63,25.92a24.85,24.85,0,0,0-2-3.45c-7.46-9.4-8.69-20-6.32-31.39C67.22,222.44,71.53,218.11,74.05,212.8Z"/><path class="cls-8" d="M197,212.8c12.58.95,22.52,11.66,22.82,24.62.31,13.24-9.12,24-22.62,25.92a25.9,25.9,0,0,0-2-3.45c-7.47-9.4-8.7-20-6.32-31.39C190.18,222.44,194.48,218.11,197,212.8Z"/><path class="cls-8" d="M320,212.8c12.59.95,22.53,11.66,22.83,24.62.3,13.24-9.12,24-22.63,25.92a25.9,25.9,0,0,0-2-3.45c-7.47-9.4-8.7-20-6.32-31.39C313.13,222.44,317.43,218.11,320,212.8Z"/><path class="cls-9" d="M442.91,212.8c12.59.95,22.53,11.66,22.83,24.62.31,13.24-9.12,24-22.63,25.92a25.9,25.9,0,0,0-2-3.45c-7.46-9.4-8.69-20-6.32-31.39C436.08,222.44,440.39,218.11,442.91,212.8Z"/><path class="cls-7" d="M197,212.8c-2.53,5.31-6.83,9.64-8.09,15.7-2.38,11.43-1.15,22,6.32,31.39a25.9,25.9,0,0,1,2,3.45c-10.49,1.23-18.57-3-24.1-11.61-5.81-9.07-5.74-18.69.15-27.69C178.75,215.64,186.68,211.45,197,212.8Z"/><path class="cls-7" d="M320,212.8c-2.53,5.31-6.83,9.64-8.09,15.7-2.38,11.43-1.15,22,6.32,31.39a25.9,25.9,0,0,1,2,3.45c-10.49,1.23-18.57-3-24.1-11.61-5.81-9.07-5.73-18.69.15-27.69C301.7,215.64,309.63,211.45,320,212.8Z"/><path class="cls-8" d="M442.91,212.8c-2.52,5.31-6.83,9.64-8.09,15.7-2.37,11.43-1.14,22,6.32,31.39a25.9,25.9,0,0,1,2,3.45c-10.48,1.23-18.57-3-24.1-11.61-5.8-9.07-5.73-18.69.15-27.69C424.65,215.64,432.59,211.45,442.91,212.8Z"/><path class="cls-7" d="M74.05,212.8c-2.52,5.31-6.83,9.64-8.09,15.7-2.37,11.43-1.14,22,6.32,31.39a24.85,24.85,0,0,1,2,3.45c-10.49,1.23-18.57-3-24.09-11.61-5.81-9.07-5.73-18.69.15-27.69C55.8,215.64,63.73,211.45,74.05,212.8Z"/><path class="cls-6" d="M196.92,20.22c-.63,2.85-2.88,4.75-4.23,7.18-8.26,14.86-6.57,29.39,5.18,43.42-10.46,1.53-18.7-2.39-24.44-10.93-5.86-8.74-6.18-18.17-.74-27.26S186.26,19.31,196.92,20.22Z"/><path class="cls-6" d="M319.88,20.22c-.63,2.85-2.89,4.75-4.24,7.18-8.26,14.86-6.56,29.39,5.18,43.42-10.46,1.53-18.7-2.38-24.43-10.93-5.86-8.74-6.18-18.17-.74-27.26S309.21,19.3,319.88,20.22Z"/><path class="cls-6" d="M382,116.67c-5.81,7-9.81,14.85-10.11,24.14-.33,10.07,3.68,18.57,10,26.16-10.51,1.6-18.57-2.64-24.15-11.19-6-9.17-5.93-18.95.11-28.07C363.45,119.22,371.56,115.1,382,116.67Z"/><path class="cls-6" d="M259.06,116.67c-5.81,7-9.81,14.85-10.11,24.14-.32,10.07,3.68,18.57,10,26.16-10.52,1.6-18.57-2.64-24.15-11.19-6-9.17-5.94-18.95.1-28.07C240.5,119.22,248.6,115.1,259.06,116.67Z"/><path class="cls-6" d="M136.11,116.67c-5.81,7-9.81,14.85-10.11,24.14-.32,10.07,3.68,18.57,10,26.16-10.52,1.6-18.58-2.64-24.15-11.19-6-9.17-5.94-18.95.1-28.07C117.54,119.22,125.65,115.1,136.11,116.67Z"/><path class="cls-3" d="M58.25,339.7c1.14,6.64.22,13.33.5,20-12,.06-24,.07-35.94.21-2.09,0-3.19-.45-2.82-2.73a2.78,2.78,0,0,0,0-.5c.1-4.46-1.47-10.29.76-13s8.39-.74,12.81-.88c5.16-.15,10.32-.12,15.48,0A13.13,13.13,0,0,0,58.25,339.7Z"/><path class="cls-1" d="M79.71,322.8a9.88,9.88,0,0,1,10.23,9.87,10.21,10.21,0,0,1-10.18,10.05A10,10,0,0,1,69.87,333,9.7,9.7,0,0,1,79.71,322.8Z"/><path class="cls-1" d="M427.73,342c-8.08-6.36-8-12.74.2-18.84,8.06-.94,12.85,1.73,13.91,7.65C443,337.42,437.36,344.92,427.73,342Z"/></g></g></svg>