<svg width="1920" height="572" viewBox="0 0 1920 572" fill="none" xmlns="http://www.w3.org/2000/svg">
<path d="M0 5H1920V572H0V5Z" fill="url(#paint0_linear)"/>
<mask id="mask0" mask-type="alpha" maskUnits="userSpaceOnUse" x="0" y="0" width="1920" height="572">
<rect width="1920" height="572" fill="#002040"/>
</mask>
<g mask="url(#mask0)">
<g opacity="0.15">
<path d="M883.096 288.866L406.436 739.951C363.443 780.629 292.538 759.518 278.812 701.965L126.489 63.6156C112.742 6.04088 166.479 -44.796 223.219 -27.9199L852.202 159.323C908.9 176.241 926.068 248.188 883.096 288.866Z" stroke="#C4C9D6" stroke-miterlimit="10"/>
<path d="M282.608 711.123L116.414 64.3459C101.79 6.41654 155.381 -45.6301 212.872 -29.3173L856.102 150.145C913.594 166.458 931.847 238.885 888.978 280.501L411.964 747.816C369.096 789.453 297.232 769.052 282.608 711.123Z" stroke="#C4C9D6" stroke-miterlimit="10"/>
<path d="M286.426 720.28L106.38 65.0546C90.8811 6.74978 144.325 -46.4651 202.568 -30.7363L860.025 140.966C918.267 156.694 937.626 229.581 894.883 272.157L417.472 755.701C374.729 798.256 301.926 778.584 286.426 720.28Z" stroke="#C4C9D6" stroke-miterlimit="10"/>
<path d="M290.244 729.437L96.3464 65.7636C79.9709 7.08335 133.248 -47.2998 192.262 -32.1551L863.967 131.766C922.96 146.931 943.425 220.277 900.807 263.791L422.999 763.544C380.361 807.059 306.619 788.097 290.244 729.437Z" stroke="#C4C9D6" stroke-miterlimit="10"/>
<path d="M294.061 738.575L86.3124 66.4736C69.0609 7.43867 122.192 -48.1543 181.957 -33.5729L867.889 122.567C927.654 137.149 949.203 210.953 906.71 255.406L428.506 771.388C386.014 815.842 311.313 797.63 294.061 738.575Z" stroke="#C4C9D6" stroke-miterlimit="10"/>
<path d="M297.879 747.732L76.2576 67.1829C58.1299 7.77249 111.115 -48.9887 171.631 -34.9913L871.811 113.368C932.327 127.365 954.981 201.649 912.593 247.041L434.034 779.253C391.646 824.645 316.006 807.143 297.879 747.732Z" stroke="#C4C9D6" stroke-miterlimit="10"/>
<path d="M301.675 756.89L66.2234 67.8923C47.2196 8.10642 100.059 -49.8229 161.326 -36.3888L875.753 104.189C937.02 117.623 960.78 192.345 918.517 238.697L439.562 787.117C397.278 833.448 320.699 816.676 301.675 756.89Z" stroke="#C4C9D6" stroke-miterlimit="10"/>
<path d="M305.492 766.027L56.1688 68.6007C36.2888 8.4602 88.9614 -50.679 151 -37.8082L879.654 94.9891C941.693 107.839 966.537 183.041 924.399 230.331L445.069 794.96C402.931 842.25 325.393 826.188 305.492 766.027Z" stroke="#C4C9D6" stroke-miterlimit="10"/>
<path d="M309.31 775.185L46.1356 69.3105C25.3795 8.79445 77.906 -51.513 140.696 -39.2262L883.597 85.7902C946.387 98.0769 972.337 173.717 930.324 221.967L450.598 802.825C408.564 851.054 330.066 835.701 309.31 775.185Z" stroke="#C4C9D6" stroke-miterlimit="10"/>
<path d="M313.127 784.342L36.0801 70.0193C14.4479 9.12783 66.8283 -52.3477 130.369 -40.6451L887.497 76.5904C951.059 88.2931 978.094 164.392 936.185 213.581L456.125 810.668C414.217 859.857 334.759 845.234 313.127 784.342Z" stroke="#C4C9D6" stroke-miterlimit="10"/>
<path d="M316.945 793.5L26.0463 70.7291C3.51711 9.46208 55.7724 -53.2025 120.064 -42.0631L891.44 67.3915C955.753 78.51 983.893 155.089 942.11 205.216L461.632 818.512C419.849 868.66 339.453 854.746 316.945 793.5Z" stroke="#C4C9D6" stroke-miterlimit="10"/>
<path d="M320.763 802.637L16.0129 71.4381C-7.39247 9.81651 44.696 -54.0372 109.78 -43.4818L895.404 58.1918C960.467 68.7471 989.714 145.764 948.055 196.851L467.161 826.376C425.482 877.463 344.147 864.279 320.763 802.637Z" stroke="#C4C9D6" stroke-miterlimit="10"/>
<path d="M324.559 811.795L5.95797 72.1478C-18.3235 10.1507 33.6188 -54.8712 99.4542 -44.8999L899.304 48.9928C965.14 58.964 995.471 136.46 953.917 188.486L472.668 834.22C431.135 886.266 348.84 873.792 324.559 811.795Z" stroke="#C4C9D6" stroke-miterlimit="10"/>
<path d="M328.376 820.952L-4.07591 72.8566C-29.2336 10.484 22.5628 -55.7061 89.1491 -46.3189L903.247 39.7928C969.833 49.18 1001.27 127.135 959.841 180.121L478.196 842.105C436.767 895.069 353.534 883.325 328.376 820.952Z" stroke="#C4C9D6" stroke-miterlimit="10"/>
<path d="M332.193 830.11L-14.131 73.5868C-40.1648 10.8596 11.4855 -56.5404 78.8229 -47.7164L907.148 30.6352C974.485 39.4591 1007.03 117.873 965.724 171.777L483.723 849.948C442.399 903.851 358.227 892.837 332.193 830.11Z" stroke="#C4C9D6" stroke-miterlimit="10"/>
<path d="M336.011 839.247L-24.1643 74.2965C-51.0743 11.1938 0.409183 -57.3744 68.5184 -49.1345L911.091 21.4362C979.2 29.6761 1012.83 108.549 971.648 163.412L489.231 857.813C448.052 912.655 362.921 902.35 336.011 839.247Z" stroke="#C4C9D6" stroke-miterlimit="10"/>
<path d="M339.828 848.404L-34.1986 74.9842C-61.9847 11.506 -10.6472 -58.2303 58.2129 -50.5745L915.012 12.2153C983.872 19.8919 1018.6 99.224 977.531 155.026L494.758 865.656C453.684 921.458 367.614 911.883 339.828 848.404Z" stroke="#C4C9D6" stroke-miterlimit="10"/>
<path d="M343.625 857.563L-44.2533 75.7149C-72.9155 11.8821 -21.7241 -59.0642 47.887 -51.9716L918.934 3.03727C988.545 10.1298 1024.38 89.9208 983.434 146.682L500.287 873.521C459.338 930.261 372.308 921.396 343.625 857.563Z" stroke="#C4C9D6" stroke-miterlimit="10"/>
<path d="M347.443 866.72L-54.2863 76.4239C-83.8246 12.2156 -32.8001 -59.8988 37.5829 -53.3903L922.877 -6.16241C993.26 0.346036 1030.18 80.6169 989.359 138.296L505.815 881.364C464.971 939.064 377.002 930.928 347.443 866.72Z" stroke="#C4C9D6" stroke-miterlimit="10"/>
<path d="M351.261 875.857L-64.3412 77.1333C-94.7556 12.5496 -43.8771 -60.733 27.2569 -54.8087L926.778 -15.3616C997.912 -9.41643 1035.94 71.2924 995.242 129.931L511.322 889.229C470.603 947.867 381.696 940.441 351.261 875.857Z" stroke="#C4C9D6" stroke-miterlimit="10"/>
<path d="M355.078 885.014L-74.3753 77.8422C-105.687 12.9038 -54.9334 -61.5887 16.9515 -56.2067L930.72 -24.5406C1002.63 -19.1795 1041.74 62.0092 1001.15 121.586L516.85 897.092C476.256 956.67 386.368 949.953 355.078 885.014Z" stroke="#C4C9D6" stroke-miterlimit="10"/>
<path d="M358.895 894.172L-84.4303 78.5514C-116.618 13.2375 -66.0106 -62.4231 6.6462 -57.6252L934.642 -33.7401C1007.3 -28.9422 1047.52 52.6846 1007.05 113.221L522.357 904.936C481.888 965.473 391.062 959.486 358.895 894.172Z" stroke="#C4C9D6" stroke-miterlimit="10"/>
<path d="M362.713 903.331L-94.4639 79.2615C-127.528 13.5721 -77.0872 -63.2568 -3.65859 -59.043L938.585 -42.9388C1011.99 -38.725 1053.32 43.3816 1012.97 104.857L527.885 912.801C487.52 974.277 395.755 968.999 362.713 903.331Z" stroke="#C4C9D6" stroke-miterlimit="10"/>
<path d="M366.509 912.467L-104.519 79.9702C-138.459 13.9262 -88.1644 -64.1126 -13.9848 -60.462L942.506 -52.1388C1016.69 -48.509 1059.09 34.0565 1018.86 96.4708L533.413 920.665C493.173 983.079 400.449 978.532 366.509 912.467Z" stroke="#C4C9D6" stroke-miterlimit="10"/>
<path d="M370.327 921.625L-114.552 80.6795C-149.368 14.26 -99.2197 -64.9469 -24.2892 -61.8805L946.429 -61.3381C1021.36 -58.2716 1064.87 24.7528 1024.76 88.1058L538.921 928.488C498.806 991.883 405.143 988.044 370.327 921.625Z" stroke="#C4C9D6" stroke-miterlimit="10"/>
<path d="M374.145 930.783L-124.585 81.3893C-160.278 14.5943 -110.275 -65.7808 -34.5936 -63.2984L950.372 -70.5161C1026.05 -68.0337 1070.67 15.4496 1030.68 79.7622L544.449 936.374C504.439 1000.67 409.837 997.578 374.145 930.783Z" stroke="#C4C9D6" stroke-miterlimit="10"/>
<path d="M377.962 939.94L-134.64 82.0983C-171.209 14.9487 -121.373 -66.6364 -44.9199 -64.7172L954.272 -79.7158C1030.73 -77.8175 1076.43 6.14555 1036.57 71.3969L549.956 944.217C510.092 1009.47 414.53 1007.09 377.962 939.94Z" stroke="#C4C9D6" stroke-miterlimit="10"/>
<path d="M381.778 949.077L-144.675 82.8068C-182.12 15.2817 -132.43 -67.4715 -55.2261 -66.1365L958.214 -88.916C1035.42 -87.581 1082.23 -3.17975 1042.47 63.0312L555.483 952.081C515.723 1018.27 419.223 1016.6 381.778 949.077Z" stroke="#C4C9D6" stroke-miterlimit="10"/>
<path d="M385.575 958.234L-154.73 83.5162C-193.05 15.6156 -143.507 -68.3057 -65.5516 -67.5548L962.136 -98.1152C1040.09 -97.3643 1088.01 -12.4833 1048.37 54.6454L561.011 959.945C521.377 1027.07 423.917 1026.14 385.575 958.234Z" stroke="#C4C9D6" stroke-miterlimit="10"/>
<path d="M389.393 967.392L-164.764 84.2252C-203.96 15.9491 -154.584 -69.1404 -75.8565 -68.9735L966.058 -107.315C1044.78 -107.127 1093.79 -21.8082 1054.28 46.2802L566.519 967.788C527.009 1035.88 428.61 1035.65 389.393 967.392Z" stroke="#C4C9D6" stroke-miterlimit="10"/>
<path d="M393.21 976.55L-174.818 84.9556C-214.912 16.3249 -165.661 -69.9746 -86.1824 -70.3709L969.979 -116.493C1049.46 -116.89 1099.56 -31.0908 1060.18 37.9362L572.047 975.653C532.641 1044.68 433.304 1045.18 393.21 976.55Z" stroke="#C4C9D6" stroke-miterlimit="10"/>
<path d="M397.028 985.687L-184.852 85.6652C-225.822 16.6589 -176.716 -70.8087 -96.4873 -71.7891L973.901 -125.692C1054.15 -126.673 1105.34 -40.4151 1066.06 29.5716L577.575 983.497C538.295 1053.48 437.998 1054.69 397.028 985.687Z" stroke="#C4C9D6" stroke-miterlimit="10"/>
<path d="M400.846 994.845L-194.886 86.3744C-236.732 16.9927 -187.772 -71.6431 -106.771 -73.2076L977.865 -134.892C1058.87 -136.435 1111.16 -49.7188 1072.01 21.2066L583.082 991.361C543.927 1062.29 442.671 1064.23 400.846 994.845Z" stroke="#C4C9D6" stroke-miterlimit="10"/>
<path d="M404.641 1004L-204.941 87.0837C-247.663 17.3474 -198.871 -72.4983 -117.098 -74.6261L981.765 -144.091C1063.52 -146.219 1116.92 -59.0434 1077.89 12.8207L588.609 999.226C549.559 1071.09 447.363 1073.74 404.641 1004Z" stroke="#C4C9D6" stroke-miterlimit="10"/>
<path d="M408.459 1013.16L-214.975 87.7925C-258.573 17.6807 -209.927 -73.3332 -127.403 -76.0451L985.708 -153.291C1068.23 -156.003 1122.72 -68.3476 1083.79 4.4552L594.137 1007.07C555.212 1079.89 452.057 1083.25 408.459 1013.16Z" stroke="#C4C9D6" stroke-miterlimit="10"/>
<path d="M412.276 1022.3L-225.03 88.5021C-269.504 18.0148 -221.003 -74.1673 -137.729 -77.4424L989.63 -162.469C1072.9 -165.745 1128.5 -77.651 1089.7 -3.88867L599.645 1014.93C560.844 1088.67 456.751 1092.78 412.276 1022.3Z" stroke="#C4C9D6" stroke-miterlimit="10"/>
<path d="M416.095 1031.45L-235.063 89.2111C-280.413 18.3692 -232.059 -75.0228 -148.033 -78.8611L993.552 -171.648C1077.58 -175.507 1134.28 -86.9341 1095.6 -12.233L605.173 1022.82C566.498 1097.48 461.445 1102.3 416.095 1031.45Z" stroke="#C4C9D6" stroke-miterlimit="10"/>
<path d="M419.912 1040.61L-245.097 89.9206C-291.324 18.7032 -243.136 -75.857 -158.339 -80.2794L997.494 -180.847C1082.29 -185.27 1140.08 -96.2585 1101.53 -20.6187L610.68 1030.64C572.13 1106.28 466.138 1111.83 419.912 1040.61Z" stroke="#C4C9D6" stroke-miterlimit="10"/>
<path d="M423.729 1049.75L-255.152 90.6296C-302.255 19.0367 -254.213 -76.6917 -168.665 -81.6982L1001.39 -190.047C1086.94 -195.054 1145.83 -105.562 1107.39 -28.9839L616.208 1038.51C577.762 1115.08 470.832 1121.34 423.729 1049.75Z" stroke="#C4C9D6" stroke-miterlimit="10"/>
<path d="M427.526 1058.91L-265.186 91.3388C-313.164 19.3913 -265.269 -77.5469 -178.97 -83.1167L1005.34 -199.247C1091.64 -204.837 1151.63 -114.887 1113.31 -37.349L621.736 1046.35C583.415 1123.89 475.525 1130.87 427.526 1058.91Z" stroke="#C4C9D6" stroke-miterlimit="10"/>
<path d="M431.343 1068.06L-275.24 92.0486C-324.116 19.7256 -276.367 -78.3809 -189.296 -84.5347L1009.26 -208.445C1096.33 -214.599 1157.41 -124.19 1119.21 -45.7135L627.243 1054.21C589.047 1132.69 480.219 1140.39 431.343 1068.06Z" stroke="#C4C9D6" stroke-miterlimit="10"/>
<path d="M435.161 1077.22L-285.274 92.7577C-335.026 20.0592 -287.423 -79.2155 -199.6 -85.9534L1013.18 -217.645C1101 -224.383 1163.19 -133.515 1125.12 -54.0787L632.771 1062.06C594.68 1141.49 484.913 1149.9 435.161 1077.22Z" stroke="#C4C9D6" stroke-miterlimit="10"/>
<path d="M438.979 1086.36L-295.307 93.4667C-345.935 20.4136 -298.478 -80.0501 -209.884 -87.3721L1017.15 -226.845C1105.74 -234.146 1169.01 -142.819 1131.04 -62.4648L638.321 1069.9C600.334 1150.3 489.607 1159.43 438.979 1086.36Z" stroke="#C4C9D6" stroke-miterlimit="10"/>
<path d="M442.796 1095.52L-305.363 94.1765C-356.867 20.7479 -309.556 -80.9049 -220.211 -88.7901L1021.05 -236.044C1110.39 -243.929 1174.77 -152.143 1136.93 -70.8293L643.806 1077.79C605.966 1159.1 494.3 1168.95 442.796 1095.52Z" stroke="#C4C9D6" stroke-miterlimit="10"/>
<path d="M446.592 1104.67L-315.397 94.8852C-367.777 21.0812 -320.632 -81.7398 -230.516 -90.2091L1024.99 -245.244C1115.08 -253.713 1180.57 -161.447 1142.85 -79.1948L649.335 1085.63C611.619 1167.9 498.973 1178.48 446.592 1104.67Z" stroke="#C4C9D6" stroke-miterlimit="10"/>
<path d="M450.41 1113.83L-325.451 95.5943C-378.708 21.4356 -331.709 -82.5743 -240.841 -91.6277L1028.89 -254.443C1119.76 -263.476 1186.32 -170.772 1148.71 -87.56L654.863 1093.49C617.251 1176.68 503.666 1187.99 450.41 1113.83Z" stroke="#C4C9D6" stroke-miterlimit="10"/>
<path d="M454.227 1122.97L-335.485 96.3252C-389.618 21.791 -342.766 -83.408 -251.147 -93.0247L1032.83 -263.621C1124.45 -273.238 1192.12 -180.054 1154.64 -95.9034L660.369 1101.34C622.883 1185.49 508.36 1197.52 454.227 1122.97Z" stroke="#C4C9D6" stroke-miterlimit="10"/>
<path d="M458.044 1132.13L-345.54 97.0344C-400.549 22.1247 -353.842 -84.2425 -261.472 -94.4433L1036.75 -272.821C1129.12 -283.021 1197.9 -189.379 1160.54 -104.289L665.898 1109.2C628.537 1194.29 513.053 1207.04 458.044 1132.13Z" stroke="#C4C9D6" stroke-miterlimit="10"/>
<path d="M461.863 1141.28L-355.573 97.7427C-411.458 22.4575 -364.918 -85.0778 -271.777 -95.8626L1040.68 -282C1133.82 -292.764 1203.68 -198.684 1166.44 -112.634L671.426 1117.07C634.17 1203.09 517.748 1216.55 461.863 1141.28Z" stroke="#C4C9D6" stroke-miterlimit="10"/>
<path d="M465.679 1150.44L-365.608 98.4524C-422.369 22.8126 -375.975 -85.9327 -282.083 -97.2599L1044.62 -291.178C1138.51 -302.526 1209.48 -207.966 1172.35 -120.978L676.932 1124.91C639.801 1211.9 522.44 1226.08 465.679 1150.44Z" stroke="#C4C9D6" stroke-miterlimit="10"/>
<path d="M469.476 1159.58L-375.662 99.1616C-433.32 23.1463 -387.052 -86.7671 -292.408 -98.6784L1048.52 -300.378C1143.18 -312.289 1215.23 -217.291 1178.23 -129.343L682.461 1132.77C645.454 1220.7 527.134 1235.59 469.476 1159.58Z" stroke="#C4C9D6" stroke-miterlimit="10"/>
<path d="M473.294 1168.74L-385.696 99.8706C-444.23 23.4798 -398.128 -87.6018 -302.713 -100.097L1052.46 -309.577C1147.88 -322.073 1221.03 -226.595 1184.15 -137.708L687.968 1140.62C651.087 1229.5 531.828 1245.13 473.294 1168.74Z" stroke="#C4C9D6" stroke-miterlimit="10"/>
<path d="M477.111 1177.89L-395.751 100.58C-455.161 23.8347 -409.206 -88.4568 -313.039 -101.515L1056.38 -318.776C1152.55 -331.856 1226.81 -235.919 1190.06 -146.094L693.496 1148.48C656.74 1238.31 536.521 1254.64 477.111 1177.89Z" stroke="#C4C9D6" stroke-miterlimit="10"/>
<path d="M480.928 1187.05L-405.784 101.289C-466.071 24.1686 -420.262 -89.2912 -323.323 -102.934L1060.31 -327.976C1157.24 -341.619 1232.59 -245.223 1195.94 -154.459L699.024 1156.35C662.372 1247.11 541.215 1264.17 480.928 1187.05Z" stroke="#C4C9D6" stroke-miterlimit="10"/>
<path d="M484.746 1196.19L-415.839 101.998C-477.002 24.5021 -431.338 -90.1258 -333.649 -104.353L1064.25 -337.175C1161.94 -351.402 1238.39 -254.547 1201.86 -162.824L704.552 1164.19C668.005 1255.91 545.909 1273.69 484.746 1196.19Z" stroke="#C4C9D6" stroke-miterlimit="10"/>
<path d="M488.542 1205.35L-425.873 102.708C-487.912 24.8568 -442.416 -90.981 -343.955 -105.771L1068.17 -346.375C1166.61 -361.186 1244.17 -263.851 1207.77 -171.189L710.059 1172.05C673.657 1264.72 550.602 1283.2 488.542 1205.35Z" stroke="#C4C9D6" stroke-miterlimit="10"/>
<path d="M492.36 1214.51L-435.907 103.418C-498.822 25.1913 -453.472 -91.8147 -354.26 -107.189L1072.09 -355.574C1171.3 -370.948 1249.95 -273.175 1213.65 -179.574L715.587 1179.9C679.29 1273.5 555.275 1292.73 492.36 1214.51Z" stroke="#C4C9D6" stroke-miterlimit="10"/>
<path d="M496.178 1223.66L-445.961 104.127C-509.752 25.5246 -464.548 -92.6495 -364.585 -108.608L1076.01 -364.773C1175.98 -380.732 1255.73 -282.479 1219.55 -187.94L721.095 1187.76C684.923 1282.3 559.969 1302.24 496.178 1223.66Z" stroke="#C4C9D6" stroke-miterlimit="10"/>
<path d="M499.995 1232.8L-455.996 104.836C-520.663 25.8794 -475.604 -93.4837 -374.89 -110.026L1079.96 -373.952C1180.67 -390.473 1261.52 -291.783 1225.48 -196.284L726.622 1195.63C690.575 1291.1 564.662 1311.78 499.995 1232.8Z" stroke="#C4C9D6" stroke-miterlimit="10"/>
<path d="M503.812 1241.96L-466.051 105.545C-531.615 26.2126 -486.702 -94.3396 -385.217 -111.445L1083.88 -383.152C1185.36 -400.257 1267.3 -301.087 1231.38 -204.649L732.129 1203.47C696.208 1299.91 569.355 1321.29 503.812 1241.96Z" stroke="#C4C9D6" stroke-miterlimit="10"/>
<path d="M507.609 1251.11L-476.084 106.254C-542.524 26.5467 -497.758 -95.1737 -395.521 -112.863L1087.8 -392.351C1190.04 -410.04 1273.08 -310.411 1237.26 -213.014L737.637 1211.33C701.861 1308.71 574.05 1330.82 507.609 1251.11Z" stroke="#C4C9D6" stroke-miterlimit="10"/>
<path d="M511.426 1260.27L-486.139 106.963C-553.455 26.9011 -508.835 -96.0084 -405.847 -114.282L1091.72 -401.551C1194.73 -419.803 1278.86 -319.715 1243.17 -221.4L743.185 1219.18C707.493 1317.51 578.743 1340.33 511.426 1260.27Z" stroke="#C4C9D6" stroke-miterlimit="10"/>
<path d="M515.244 1269.41L-496.172 107.693C-564.365 27.2348 -519.911 -96.8428 -416.152 -115.68L1095.66 -410.729C1199.42 -429.566 1284.66 -329.019 1249.09 -229.744L748.693 1227.04C713.126 1326.32 583.437 1349.85 515.244 1269.41Z" stroke="#C4C9D6" stroke-miterlimit="10"/>
<path d="M519.061 1278.57L-506.207 108.403C-575.275 27.5897 -530.968 -97.677 -426.457 -117.098L1099.58 -419.928C1204.1 -439.329 1290.44 -338.323 1254.99 -238.109L754.22 1234.91C718.778 1335.12 588.13 1359.38 519.061 1278.57Z" stroke="#C4C9D6" stroke-miterlimit="10"/>
<path d="M522.879 1287.72L-516.261 109.112C-586.206 27.9444 -542.045 -98.5113 -436.762 -118.496L1103.53 -429.107C1208.81 -449.091 1296.24 -347.626 1260.9 -246.453L759.748 1242.77C724.411 1343.92 592.823 1368.89 522.879 1287.72Z" stroke="#C4C9D6" stroke-miterlimit="10"/>
<path d="M526.696 1296.86L-526.295 109.821C-597.116 28.278 -553.1 -99.3668 -447.067 -119.914L1107.43 -438.327C1213.46 -458.896 1301.99 -356.951 1266.78 -254.839L765.256 1250.61C730.043 1352.73 597.517 1378.43 526.696 1296.86Z" stroke="#C4C9D6" stroke-miterlimit="10"/>
<path d="M530.492 1306.02L-536.35 110.53C-608.047 28.6117 -564.199 -100.201 -457.394 -121.333L1111.37 -447.506C1218.16 -468.638 1307.79 -366.255 1272.71 -263.204L770.783 1258.46C735.696 1361.51 602.21 1387.94 530.492 1306.02Z" stroke="#C4C9D6" stroke-miterlimit="10"/>
<path d="M534.31 1315.18L-546.383 111.24C-618.957 28.9457 -575.254 -101.035 -467.698 -122.751L1115.29 -456.705C1222.85 -478.421 1313.57 -375.558 1278.59 -271.569L776.312 1266.32C741.329 1370.31 606.884 1397.45 534.31 1315.18Z" stroke="#C4C9D6" stroke-miterlimit="10"/>
<path d="M538.128 1324.33L-556.438 111.949C-629.888 29.3001 -586.331 -101.891 -478.024 -124.17L1119.22 -465.905C1227.52 -488.205 1319.35 -384.883 1284.49 -279.934L781.819 1274.17C746.961 1379.11 611.577 1406.98 538.128 1324.33Z" stroke="#C4C9D6" stroke-miterlimit="10"/>
<path d="M541.945 1333.47L-566.472 112.658C-640.819 29.6332 -597.387 -102.726 -488.329 -125.589L1123.14 -475.105C1232.19 -497.968 1325.13 -394.187 1290.4 -288.3L787.347 1282.03C752.614 1387.92 616.27 1416.5 541.945 1333.47Z" stroke="#C4C9D6" stroke-miterlimit="10"/>
<path d="M545.762 1342.63L-576.506 113.368C-651.729 29.968 -608.465 -103.559 -498.635 -127.007L1127.08 -484.283C1236.91 -507.73 1330.93 -403.49 1296.32 -296.643L792.854 1289.89C758.246 1396.72 620.964 1426.03 545.762 1342.63Z" stroke="#C4C9D6" stroke-miterlimit="10"/>
<path d="M549.559 1351.79L-586.56 114.076C-662.659 30.3219 -619.541 -104.415 -508.96 -128.426L1131 -493.483C1241.58 -517.493 1336.71 -412.795 1302.2 -305.03L798.382 1297.74C763.9 1405.52 625.658 1435.54 549.559 1351.79Z" stroke="#C4C9D6" stroke-miterlimit="10"/>
<path d="M553.377 1360.94L-596.594 114.786C-673.569 30.6559 -630.597 -105.25 -519.265 -129.844L1134.92 -502.682C1246.28 -527.276 1342.48 -422.119 1308.11 -313.395L803.91 1305.6C769.533 1414.33 630.352 1445.07 553.377 1360.94Z" stroke="#C4C9D6" stroke-miterlimit="10"/>
<path d="M557.194 1370.08L-606.649 115.495C-684.5 31.0105 -641.673 -106.084 -529.57 -131.262L1138.87 -511.881C1250.97 -537.06 1348.28 -431.423 1314.03 -321.76L809.417 1313.47C775.165 1423.13 635.045 1454.59 557.194 1370.08Z" stroke="#C4C9D6" stroke-miterlimit="10"/>
<path d="M561.012 1379.24L-616.682 116.205C-695.409 31.345 -652.75 -106.918 -539.874 -132.68L1142.79 -521.08C1255.64 -546.822 1354.06 -440.747 1319.93 -330.124L814.946 1321.31C780.818 1431.93 639.739 1464.1 561.012 1379.24Z" stroke="#C4C9D6" stroke-miterlimit="10"/>
<path d="M564.829 1388.4L-626.738 116.913C-706.341 31.6776 -663.827 -107.753 -550.201 -134.079L1146.71 -530.26C1260.34 -556.586 1359.84 -450.031 1325.82 -338.49L820.473 1329.17C786.45 1440.73 644.433 1473.63 564.829 1388.4Z" stroke="#C4C9D6" stroke-miterlimit="10"/>
<path d="M568.626 1397.55L-636.771 117.623C-717.251 32.0332 -674.883 -108.608 -560.505 -135.497L1150.63 -539.458C1265.01 -566.368 1365.62 -459.354 1331.72 -346.854L825.981 1337.02C792.083 1449.52 649.126 1483.15 568.626 1397.55Z" stroke="#C4C9D6" stroke-miterlimit="10"/>
<path d="M572.443 1406.69L-646.806 118.332C-728.161 32.3666 -685.961 -109.442 -570.811 -136.936L1154.57 -548.658C1269.7 -576.131 1371.42 -468.658 1337.64 -355.22L831.508 1344.88C797.735 1458.32 653.819 1492.68 572.443 1406.69Z" stroke="#C4C9D6" stroke-miterlimit="10"/>
</g>
</g>
<defs>
<linearGradient id="paint0_linear" x1="908.5" y1="189.76" x2="1483.88" y2="945.275" gradientUnits="userSpaceOnUse">
<stop stop-color="#002040"/>
<stop offset="1" stop-color="#014B59"/>
</linearGradient>
</defs>
</svg>
