<svg width="151" height="48" viewBox="0 0 151 48" fill="none" xmlns="http://www.w3.org/2000/svg">
<g clip-path="url(#clip0)">
<path d="M23.3657 29.9932H8.32152C7.63131 29.9932 7.01967 29.6396 6.67176 29.0392C6.32947 28.4444 6.32947 27.7318 6.67176 27.137L14.1911 14.1073C14.5333 13.5124 15.1506 13.1533 15.8408 13.1533C16.531 13.1533 17.1427 13.5068 17.4906 14.1073L25.0098 27.137C25.3521 27.7318 25.3521 28.4444 25.0098 29.0392C24.6676 29.634 24.0503 29.9932 23.3657 29.9932ZM15.8408 13.4395C15.2572 13.4395 14.7297 13.7425 14.438 14.2532L6.91866 27.2829C6.62687 27.7879 6.62687 28.3995 6.91866 28.9045C7.21046 29.4096 7.73793 29.7182 8.32152 29.7182H23.3657C23.9549 29.7182 24.4768 29.4152 24.7686 28.9045C25.0604 28.3995 25.0604 27.7879 24.7686 27.2829L17.2493 14.2532C16.9519 13.7425 16.43 13.4395 15.8408 13.4395Z" fill="url(#paint0_linear)"/>
<path d="M7.95691 31.3454C7.28915 31.3454 6.67751 31.0255 6.30154 30.4644C5.89191 29.864 5.84141 29.1176 6.15565 28.4611L13.097 13.3103C13.4168 12.6538 14.0341 12.2329 14.7579 12.1824C15.4818 12.1263 16.1552 12.4574 16.5648 13.0578L26.2164 26.643C26.6261 27.2434 26.6822 27.9954 26.3623 28.6463C26.0481 29.2972 25.4252 29.7181 24.7014 29.7742L8.10842 31.3398C8.06353 31.3398 8.00741 31.3454 7.95691 31.3454ZM14.9094 12.4574C14.8646 12.4574 14.8253 12.4574 14.7804 12.463C14.1575 12.5079 13.6244 12.8726 13.3495 13.4338L6.40816 28.5846C6.1332 29.1513 6.1837 29.791 6.53161 30.3073C6.87952 30.8235 7.4631 31.1041 8.08597 31.0592L24.6789 29.4936C25.3018 29.4487 25.8349 29.084 26.1098 28.5228C26.3792 27.9617 26.3343 27.3164 25.9864 26.8001L16.3347 13.2149C16.0093 12.7379 15.4818 12.4574 14.9094 12.4574Z" fill="url(#paint1_linear)"/>
<path d="M7.59808 32.7091C6.94715 32.7091 6.34112 32.4173 5.93149 31.8898C5.46013 31.2838 5.35351 30.4982 5.6397 29.7912L12.003 12.5136C12.2948 11.801 12.9177 11.3128 13.6752 11.2062C14.4328 11.1052 15.1679 11.4026 15.6392 12.003L27.4176 26.1494C27.8889 26.7554 28.0012 27.541 27.7094 28.2536C27.4232 28.9607 26.7947 29.4489 26.0372 29.5555L7.89548 32.681C7.80009 32.6979 7.69908 32.7091 7.59808 32.7091ZM13.9783 11.4699C13.8941 11.4699 13.8043 11.4755 13.7201 11.4867C13.0636 11.5765 12.5193 11.9974 12.2668 12.6146L5.90343 29.8922C5.65092 30.515 5.74631 31.194 6.15594 31.7159C6.56558 32.2433 7.20528 32.5015 7.86181 32.4061L26.0091 29.2805C26.6656 29.1907 27.21 28.7699 27.4625 28.1526C27.715 27.5354 27.6196 26.8564 27.21 26.3289L15.426 12.1826C15.0669 11.7224 14.5394 11.4699 13.9783 11.4699Z" fill="url(#paint2_linear)"/>
<path d="M7.23881 34.0782C6.59911 34.0782 5.99308 33.8089 5.561 33.3095C5.02791 32.6978 4.86518 31.8786 5.12892 31.1098L10.9143 11.7112C11.178 10.9368 11.8065 10.3869 12.6033 10.2297C13.4001 10.0726 14.1913 10.342 14.7244 10.9536L28.6351 25.6611C29.1738 26.2728 29.3365 27.0976 29.0728 27.8608C28.8091 28.6239 28.1806 29.1795 27.3894 29.3366L7.69333 34.0277C7.53621 34.0614 7.38471 34.0782 7.23881 34.0782ZM13.041 10.471C12.9119 10.471 12.7829 10.4823 12.6538 10.5103C11.958 10.645 11.4081 11.1276 11.178 11.8009L5.39266 31.1996C5.16259 31.8729 5.30287 32.5968 5.76862 33.1299C6.23437 33.663 6.92457 33.8987 7.626 33.764L27.322 29.0729C28.0179 28.9382 28.5678 28.4556 28.7978 27.7822C29.0279 27.1145 28.882 26.3906 28.4163 25.8575L14.5112 11.1444C14.1296 10.7123 13.6021 10.471 13.041 10.471Z" fill="url(#paint3_linear)"/>
<path d="M6.87961 35.453C6.25113 35.453 5.6451 35.2005 5.19058 34.7348C4.59577 34.1175 4.37692 33.2646 4.6126 32.4397L9.81999 10.9144C10.0557 10.0839 10.6898 9.47222 11.5202 9.2646C12.3507 9.05698 13.2037 9.29827 13.7985 9.91552L29.8359 25.1842C30.4363 25.8014 30.6495 26.66 30.4139 27.4848C30.1782 28.3041 29.5441 28.9214 28.7192 29.129L7.46881 35.3801C7.27241 35.4306 7.07601 35.453 6.87961 35.453ZM12.1038 9.46661C11.9299 9.46661 11.7615 9.48905 11.5876 9.52833C10.8581 9.71351 10.297 10.2522 10.0893 10.9817L4.88195 32.5071C4.67433 33.2365 4.86512 33.9941 5.38698 34.5384C5.90884 35.0827 6.66077 35.2959 7.39025 35.1108L28.6407 28.854C29.3701 28.6689 29.9313 28.1302 30.1389 27.4007C30.3465 26.6768 30.1557 25.9193 29.6283 25.375L13.5965 10.1063C13.1924 9.69107 12.6594 9.46661 12.1038 9.46661Z" fill="url(#paint4_linear)"/>
<path d="M6.52046 36.8333C5.89759 36.8333 5.29156 36.5977 4.8202 36.1488C4.16367 35.5315 3.89432 34.6337 4.10194 33.7583L8.73135 10.1062C8.93898 9.21959 9.57868 8.54061 10.4484 8.28249C11.3126 8.02436 12.2217 8.2376 12.8782 8.85485L31.0479 24.6846C31.7101 25.3075 31.9794 26.1997 31.7718 27.0807C31.5642 27.9561 30.9245 28.6351 30.0603 28.8988L7.25555 36.7267C7.00865 36.7997 6.76175 36.8333 6.52046 36.8333ZM11.1667 8.46205C10.9535 8.46205 10.7346 8.49572 10.5214 8.55745C9.75263 8.78752 9.18588 9.39355 9.0007 10.1735L4.37129 33.82C4.18611 34.6056 4.42179 35.3968 5.00538 35.9467C5.58896 36.4967 6.39701 36.6874 7.16577 36.4574L29.9649 28.6407C30.7337 28.4106 31.3004 27.8046 31.4856 27.0246C31.6708 26.2446 31.4295 25.4478 30.8459 24.8979L12.6818 9.06809C12.2609 8.66968 11.7222 8.46205 11.1667 8.46205Z" fill="url(#paint5_linear)"/>
<path d="M6.16128 38.2194C5.53842 38.2194 4.93239 37.9949 4.44419 37.574C3.72593 36.9512 3.40608 36.0197 3.58565 35.0826L7.63708 9.30938C7.81665 8.36666 8.46757 7.62595 9.3654 7.31733C10.2688 7.0087 11.234 7.19388 11.9523 7.81674L32.2487 24.2133C32.9726 24.8418 33.2925 25.7733 33.1129 26.7047C32.9333 27.6419 32.288 28.3826 31.3902 28.6912L7.03666 38.0735C6.74487 38.1745 6.45308 38.2194 6.16128 38.2194ZM10.2296 7.44639C9.97143 7.44639 9.7077 7.49128 9.45518 7.57545C8.65275 7.85041 8.07478 8.51817 7.91204 9.35427L3.86061 35.1331C3.69787 35.9748 3.98406 36.8053 4.62937 37.3608C5.27468 37.9163 6.13884 38.0847 6.94127 37.8097L31.2948 28.4275C32.0972 28.1525 32.6752 27.4847 32.8379 26.6486C33.0007 25.8125 32.7145 24.982 32.0692 24.4265L11.7671 8.02998C11.3294 7.6484 10.7851 7.44639 10.2296 7.44639Z" fill="url(#paint6_linear)"/>
<path d="M5.80209 39.611C5.17923 39.611 4.57319 39.3977 4.06817 38.9937C3.28818 38.3652 2.91222 37.3945 3.06934 36.4068L6.53719 8.50692C6.69431 7.5137 7.34523 6.70566 8.28234 6.34092C9.21944 5.98179 10.2407 6.13891 11.0207 6.76738L33.4495 23.7251C34.2351 24.3592 34.6055 25.3243 34.454 26.3175C34.2968 27.3051 33.6515 28.1132 32.7144 28.4779L6.81776 39.4202C6.48668 39.5492 6.14439 39.611 5.80209 39.611ZM9.29239 6.4307C8.98937 6.4307 8.68075 6.48681 8.38895 6.59904C7.54724 6.9245 6.96365 7.64838 6.82337 8.54059L3.34991 36.4461C3.20962 37.344 3.54631 38.2081 4.24773 38.7749C4.94916 39.3416 5.86943 39.4819 6.71114 39.1621L32.6134 28.2142C33.4551 27.8887 34.0387 27.1649 34.179 26.2726C34.3193 25.3804 33.9826 24.5107 33.2812 23.9439L10.8524 6.99184C10.3978 6.62149 9.84792 6.4307 9.29239 6.4307Z" fill="url(#paint7_linear)"/>
<path d="M5.44848 41.0027C4.83123 41.0027 4.21958 40.8007 3.70333 40.4135C2.86162 39.7794 2.43515 38.775 2.56422 37.7257L5.45409 7.699C5.58316 6.64967 6.23969 5.7799 7.21046 5.36465C8.18124 4.95502 9.26424 5.08408 10.106 5.71817L34.6671 23.237C35.5144 23.8767 35.9409 24.8755 35.8118 25.9249C35.6828 26.9686 35.0262 27.844 34.0555 28.2536L6.59882 40.767C6.22286 40.9242 5.83567 41.0027 5.44848 41.0027ZM8.35519 5.40954C8.00729 5.40954 7.65377 5.47688 7.31708 5.62278C6.4417 5.99313 5.84689 6.78434 5.72905 7.72706L2.83918 37.7593C2.72134 38.7077 3.10852 39.6167 3.86606 40.1891C4.62922 40.7614 5.6056 40.8849 6.48098 40.5089L33.9376 28.0011C34.813 27.6307 35.4078 26.8395 35.5256 25.8968C35.6435 24.9485 35.2563 24.045 34.4988 23.4671L9.93761 5.94824C9.46625 5.59472 8.91633 5.40954 8.35519 5.40954Z" fill="url(#paint8_linear)"/>
<path d="M5.08939 42.3999C4.46653 42.3999 3.85488 42.2091 3.32741 41.8331C2.42397 41.1934 1.947 40.1553 2.04801 39.0499L4.35991 6.89649C4.46092 5.79104 5.12306 4.85955 6.13312 4.3938C7.13756 3.93367 8.28229 4.04028 9.18011 4.67999L35.868 22.7599C36.7714 23.3997 37.254 24.4434 37.1474 25.5432C37.0464 26.643 36.3842 27.5802 35.3798 28.0403L6.38002 42.1137C5.96477 42.3045 5.52708 42.3999 5.08939 42.3999ZM7.41813 4.38819C7.02533 4.38819 6.62692 4.47236 6.25096 4.64632C5.3363 5.06717 4.73588 5.9145 4.64048 6.91894L2.32858 39.0723C2.23319 40.0768 2.67088 41.0195 3.49014 41.6031C4.30941 42.1866 5.34752 42.282 6.26218 41.8612L35.2676 27.7878C36.1822 27.3669 36.7826 26.5196 36.878 25.5208C36.9734 24.5219 36.5357 23.5736 35.7165 22.9956L9.02299 4.91005C8.54041 4.56215 7.97927 4.38819 7.41813 4.38819Z" fill="url(#paint9_linear)"/>
<path d="M4.73595 43.7972C4.11308 43.7972 3.49583 43.612 2.95713 43.2473C1.99197 42.602 1.4645 41.5246 1.53745 40.3686L3.27137 6.08854C3.34993 4.92697 4.01769 3.92814 5.0558 3.4175C6.09952 2.90687 7.29475 2.98543 8.25992 3.63074L37.0801 22.2775C38.0453 22.9228 38.5784 24.0002 38.4998 25.1617C38.4212 26.3177 37.7535 27.3165 36.7154 27.8271L6.16125 43.4605C5.70111 43.685 5.21853 43.7972 4.73595 43.7972ZM6.4811 3.367C6.04341 3.367 5.60011 3.46801 5.18486 3.67002C4.23092 4.13576 3.61928 5.05042 3.55194 6.10537L1.81802 40.3855C1.75068 41.446 2.23326 42.428 3.10864 43.0172C3.98963 43.6064 5.08386 43.6794 6.03219 43.2136L36.5919 27.5746C37.5403 27.1089 38.1519 26.1942 38.2192 25.1393C38.2866 24.0843 37.804 23.1023 36.923 22.5131L8.10841 3.86642C7.60899 3.53534 7.04785 3.367 6.4811 3.367Z" fill="url(#paint10_linear)"/>
<path d="M4.37699 45.1945C3.75413 45.1945 3.13126 45.0149 2.58134 44.667C1.55445 44.0161 0.976479 42.905 1.02698 41.6874L2.18293 5.28614C2.23343 4.06846 2.9068 3.00791 3.98419 2.44677C5.06158 1.88563 6.31293 1.93613 7.33982 2.58705L38.2924 21.7949C39.3192 22.4458 39.9028 23.5625 39.8523 24.7746C39.8018 25.9866 39.1285 27.0472 38.0511 27.6083L5.93696 44.8073C5.44316 45.071 4.91008 45.1945 4.37699 45.1945ZM5.53855 2.34015C5.05036 2.34015 4.56217 2.45799 4.10765 2.69367C3.12565 3.20992 2.50839 4.18069 2.4635 5.29175L1.30194 41.6986C1.25705 42.8096 1.79013 43.8309 2.72724 44.4313C3.66996 45.0261 4.82029 45.0766 5.80229 44.5604L37.9108 27.3558C38.8984 26.8396 39.5156 25.8688 39.5605 24.7577C39.6054 23.6467 39.0723 22.6254 38.1352 22.0306L7.18831 2.82273C6.68328 2.50288 6.11092 2.34015 5.53855 2.34015Z" fill="url(#paint11_linear)"/>
<path d="M4.02357 46.5971C3.3951 46.5971 2.77223 46.4288 2.21109 46.0865C1.12247 45.43 0.488385 44.2796 0.51083 43.0115L1.08881 4.4779C1.11686 3.20972 1.79584 2.08183 2.9069 1.47019C4.01796 0.858543 5.33103 0.880989 6.41965 1.54314L39.4989 21.3121C40.5875 21.9687 41.2216 23.119 41.1936 24.3872C41.1655 25.6554 40.4865 26.7776 39.3755 27.3893L5.71822 46.1538C5.18514 46.4513 4.60155 46.5971 4.02357 46.5971ZM4.60155 1.31307C4.06846 1.31307 3.53538 1.44774 3.04158 1.71709C2.0203 2.27823 1.39182 3.31634 1.36938 4.48351L0.791401 43.0171C0.768955 44.1842 1.35254 45.2448 2.35137 45.8452C3.3502 46.4512 4.55666 46.4737 5.58355 45.9126L39.2464 27.148C40.2677 26.5869 40.8962 25.5487 40.9186 24.3816C40.941 23.2144 40.3575 22.1538 39.3586 21.5534L6.27375 1.78443C5.75189 1.47019 5.17952 1.31307 4.60155 1.31307Z" fill="url(#paint12_linear)"/>
<path d="M3.66425 48.0001C3.03577 48.0001 2.4073 47.8318 1.82932 47.5007C0.684592 46.8442 0 45.6545 0 44.3303V3.66998C0 2.34569 0.684592 1.15607 1.83493 0.493924C2.98527 -0.168222 4.35445 -0.168222 5.49918 0.493924L40.7108 20.8241C41.8555 21.4862 42.5457 22.6758 42.5457 24.0001C42.5457 25.3244 41.8611 26.514 40.7108 27.1762L40.6434 27.0527L40.7108 27.1762L5.49918 47.5063C4.92121 47.8374 4.29273 48.0001 3.66425 48.0001ZM3.66425 0.280691C3.08066 0.280691 2.50269 0.432199 1.96961 0.740826C0.91466 1.35247 0.280571 2.44669 0.280571 3.66998V44.3303C0.280571 45.5535 0.91466 46.6478 1.97522 47.2594C3.03577 47.8711 4.29834 47.8711 5.3589 47.2594L40.5705 26.9293C41.6311 26.3176 42.2651 25.2234 42.2651 24.0001C42.2651 22.7768 41.6311 21.6826 40.5705 21.071L5.3589 0.740826C4.82581 0.432199 4.24784 0.280691 3.66425 0.280691Z" fill="url(#paint13_linear)"/>
<path d="M62.2081 28.0404C62.0341 27.8833 61.9443 27.6645 61.9443 27.3783V20.5492C61.9443 20.2686 62.0341 20.0498 62.2081 19.887C62.382 19.7299 62.6289 19.6514 62.9376 19.6514C63.2518 19.6514 63.4987 19.7355 63.6783 19.8983C63.8578 20.061 63.9476 20.2798 63.9476 20.5492V21.1384C64.2506 20.667 64.6266 20.2967 65.0755 20.0386C65.5244 19.7804 66.0126 19.6514 66.5289 19.6514C67.0563 19.6514 67.5333 19.786 67.9485 20.0498C68.3638 20.3135 68.6724 20.6783 68.88 21.1384C69.7218 20.1452 70.6981 19.6514 71.8036 19.6514C72.7688 19.6514 73.5095 19.9544 74.0313 20.5548C74.5532 21.1552 74.8169 22.0138 74.8169 23.1136V27.3727C74.8169 27.6532 74.7215 27.8721 74.5364 28.0348C74.3512 28.1919 74.0987 28.2705 73.7844 28.2705C73.4702 28.2705 73.2289 28.1919 73.0549 28.0348C72.881 27.8777 72.7912 27.6588 72.7912 27.3727V23.0126C72.7912 21.7837 72.3198 21.1721 71.3827 21.1721C70.5747 21.1721 69.9406 21.6154 69.4692 22.5076V27.3783C69.4692 27.6588 69.3795 27.8777 69.1999 28.0404C69.0203 28.1975 68.7734 28.2761 68.4592 28.2761C68.1449 28.2761 67.898 28.1975 67.7185 28.0404C67.5389 27.8833 67.4491 27.6645 67.4491 27.3783V23.3381C67.4491 21.8959 66.9834 21.1721 66.0575 21.1721C65.4178 21.1721 64.9072 21.4077 64.52 21.8735C64.1328 22.3392 63.942 22.9677 63.942 23.7589V27.3783C63.942 27.6476 63.8522 27.8665 63.6727 28.0292C63.4931 28.1919 63.2462 28.2761 62.9319 28.2761C62.6233 28.2761 62.382 28.1975 62.2081 28.0404Z" fill="#002040"/>
<path d="M78.7281 27.7599C77.965 27.4176 77.3814 26.9238 76.9774 26.2784C76.5733 25.6331 76.3713 24.8756 76.3713 23.9946C76.3713 22.631 76.8034 21.5649 77.6732 20.7961C78.5373 20.0273 79.7438 19.6458 81.2869 19.6458C82.2353 19.6458 83.0826 19.786 83.8121 20.0666C84.5472 20.3472 85.1195 20.74 85.5292 21.2394C85.9388 21.7388 86.1408 22.3112 86.1408 22.9565C86.1408 23.4727 85.9725 23.8768 85.6358 24.1573C85.2991 24.4379 84.8221 24.5782 84.2105 24.5782H78.3634C78.3634 25.2796 78.6271 25.8183 79.1546 26.1999C79.6821 26.5815 80.4452 26.7722 81.4272 26.7722C81.994 26.7722 82.4934 26.7161 82.9255 26.6039C83.3575 26.4917 83.7616 26.3121 84.1375 26.0652C84.4854 25.852 84.7492 25.7454 84.9343 25.7454C85.0915 25.7454 85.2542 25.8239 85.4225 25.981C85.6133 26.1494 85.7087 26.3346 85.7087 26.5366C85.7087 26.7498 85.6077 26.9294 85.4001 27.0753C84.39 27.8665 83.0657 28.2593 81.4272 28.2593C80.3947 28.2761 79.4913 28.1021 78.7281 27.7599ZM83.5932 23.2202C83.7952 23.2202 83.9467 23.1809 84.0421 23.1024C84.1375 23.0238 84.188 22.8891 84.188 22.6984C84.188 22.2382 83.9243 21.8623 83.3912 21.5761C82.8637 21.2899 82.1567 21.144 81.2757 21.144C80.3835 21.144 79.6821 21.3348 79.1658 21.7108C78.6496 22.0867 78.3914 22.5917 78.3914 23.2258H83.5932V23.2202Z" fill="#002040"/>
<path d="M88.0936 28.0404C87.914 27.8833 87.8242 27.6645 87.8242 27.3783V20.5492C87.8242 20.2686 87.914 20.0498 88.088 19.887C88.2619 19.7299 88.4976 19.6514 88.8006 19.6514C89.1148 19.6514 89.3561 19.7299 89.5301 19.887C89.704 20.0442 89.7938 20.263 89.7938 20.5492V21.2618C90.5738 20.3023 91.6063 19.8253 92.8801 19.8253H93.2953C93.6208 19.8253 93.8789 19.8927 94.0641 20.0273C94.2493 20.162 94.3447 20.3472 94.3447 20.5829C94.3447 20.8298 94.2493 21.0206 94.0641 21.1496C93.8789 21.2787 93.6208 21.346 93.2953 21.346H92.7174C91.8364 21.346 91.1406 21.5985 90.6243 22.0979C90.1081 22.5974 89.8499 23.2819 89.8499 24.1517V27.3839C89.8499 27.6532 89.7545 27.8721 89.5694 28.0348C89.3842 28.1975 89.1373 28.2817 88.8399 28.2817C88.52 28.2761 88.2731 28.1975 88.0936 28.0404Z" fill="#002040"/>
<path d="M95.9664 27.1258C95.0742 26.357 94.6309 25.3021 94.6309 23.9441C94.6309 22.6142 95.0742 21.5649 95.9664 20.8017C96.8586 20.0329 98.0763 19.6514 99.6306 19.6514C100.495 19.6514 101.275 19.7804 101.959 20.0386C102.644 20.2967 103.188 20.6614 103.587 21.1384C103.721 21.2955 103.783 21.4526 103.783 21.6097C103.783 21.8679 103.637 22.0923 103.351 22.2887C103.216 22.3785 103.07 22.4234 102.902 22.4234C102.565 22.4234 102.274 22.3 102.038 22.0531C101.763 21.7725 101.421 21.5536 101.011 21.4021C100.601 21.2506 100.147 21.1721 99.6362 21.1721C98.6991 21.1721 97.9696 21.4133 97.4534 21.9015C96.9371 22.3841 96.679 23.0687 96.679 23.9497C96.679 24.8419 96.9371 25.5321 97.4534 26.0203C97.9696 26.5085 98.6991 26.7554 99.6362 26.7554C100.686 26.7554 101.555 26.4412 102.257 25.8071C102.543 25.5377 102.829 25.4031 103.104 25.4031C103.306 25.4031 103.48 25.4648 103.626 25.5882C103.878 25.7678 104.008 25.9866 104.008 26.2504C104.008 26.4412 103.929 26.6039 103.772 26.7386C103.205 27.2661 102.588 27.6588 101.92 27.9058C101.252 28.1527 100.489 28.2761 99.6362 28.2761C98.0763 28.2761 96.853 27.8945 95.9664 27.1258Z" fill="#002040"/>
<path d="M105.983 27.5129C105.298 27.0079 104.956 26.3289 104.956 25.4816C104.956 24.6455 105.321 23.9834 106.05 23.484C106.78 22.9901 107.762 22.7376 109.002 22.7376C110.202 22.7376 111.145 22.9958 111.819 23.5176V22.8723C111.819 22.3112 111.628 21.8791 111.252 21.5761C110.87 21.2787 110.315 21.1272 109.58 21.1272C108.547 21.1272 107.655 21.3404 106.909 21.7725C106.656 21.9071 106.426 21.9745 106.224 21.9745C106.005 21.9745 105.809 21.8847 105.629 21.7051C105.511 21.5817 105.45 21.4358 105.45 21.2674C105.45 20.9981 105.573 20.7849 105.831 20.6221C106.263 20.3191 106.813 20.0778 107.475 19.9039C108.137 19.7299 108.828 19.6401 109.552 19.6401C110.91 19.6401 111.976 19.9263 112.75 20.5043C113.519 21.0767 113.906 21.8735 113.906 22.8891V27.4232C113.906 27.6813 113.816 27.8889 113.637 28.0404C113.457 28.1919 113.21 28.2705 112.896 28.2705C112.582 28.2705 112.34 28.1975 112.166 28.0516C111.993 27.9057 111.903 27.7037 111.903 27.4456V27.1258C111.19 27.8945 110.141 28.2761 108.744 28.2761C107.588 28.2761 106.673 28.0236 105.983 27.5129ZM111.112 26.5085C111.594 26.256 111.835 25.9081 111.835 25.4704C111.835 25.0439 111.6 24.7016 111.134 24.4547C110.663 24.2078 110.023 24.0844 109.204 24.0844C108.491 24.0844 107.941 24.2078 107.554 24.4547C107.161 24.7016 106.965 25.0439 106.965 25.4872C106.965 25.9361 107.155 26.284 107.531 26.5253C107.913 26.7666 108.457 26.8901 109.164 26.8901C109.984 26.8901 110.629 26.761 111.112 26.5085Z" fill="#002040"/>
<path d="M122.811 16.8625C122.811 17.0196 122.755 17.1655 122.649 17.3002C122.469 17.5358 122.261 17.6537 122.037 17.6537C121.902 17.6537 121.723 17.6088 121.493 17.519C121.032 17.3058 120.572 17.1992 120.101 17.1992C119.725 17.1992 119.433 17.3058 119.226 17.5134C119.012 17.721 118.911 18.0128 118.911 18.3832V19.8197H121.15C121.465 19.8197 121.711 19.887 121.902 20.0217C122.087 20.1564 122.183 20.3416 122.183 20.5772C122.183 20.8017 122.087 20.9813 121.902 21.1159C121.717 21.2506 121.465 21.3179 121.15 21.3179H118.911V27.3726C118.911 27.6532 118.822 27.8721 118.642 28.0348C118.462 28.1919 118.216 28.2705 117.901 28.2705C117.587 28.2705 117.34 28.1919 117.161 28.0348C116.981 27.8777 116.891 27.6588 116.891 27.3726V21.3292H116.33C116.016 21.3292 115.769 21.2618 115.578 21.1272C115.393 20.9925 115.298 20.8129 115.298 20.5885C115.298 20.3528 115.387 20.1676 115.567 20.0329C115.747 19.8983 115.999 19.8309 116.324 19.8309H116.886V18.4617C116.886 17.6256 117.161 16.9579 117.716 16.4472C118.272 15.9422 118.996 15.6841 119.899 15.6841C120.466 15.6841 120.954 15.7346 121.364 15.83C121.773 15.9254 122.132 16.0825 122.447 16.2957C122.693 16.4472 122.811 16.638 122.811 16.8625Z" fill="#002040"/>
<path d="M123.462 27.5129C122.778 27.0079 122.435 26.3289 122.435 25.4816C122.435 24.6455 122.8 23.9834 123.53 23.484C124.259 22.9901 125.241 22.7376 126.481 22.7376C127.682 22.7376 128.625 22.9958 129.298 23.5176V22.8723C129.298 22.3112 129.107 21.8791 128.731 21.5761C128.35 21.2787 127.794 21.1272 127.059 21.1272C126.027 21.1272 125.134 21.3404 124.388 21.7725C124.136 21.9071 123.905 21.9745 123.703 21.9745C123.485 21.9745 123.288 21.8847 123.109 21.7051C122.991 21.5817 122.929 21.4358 122.929 21.2674C122.929 20.9981 123.053 20.7849 123.311 20.6221C123.743 20.3191 124.293 20.0778 124.955 19.9039C125.617 19.7299 126.307 19.6401 127.031 19.6401C128.389 19.6401 129.455 19.9263 130.23 20.5043C130.998 21.0767 131.385 21.8735 131.385 22.8891V27.4232C131.385 27.6813 131.296 27.8889 131.116 28.0404C130.937 28.1919 130.69 28.2705 130.375 28.2705C130.061 28.2705 129.82 28.1975 129.646 28.0516C129.472 27.9057 129.382 27.7037 129.382 27.4456V27.1258C128.67 27.8945 127.62 28.2761 126.223 28.2761C125.061 28.2761 124.147 28.0236 123.462 27.5129ZM128.591 26.5085C129.074 26.256 129.315 25.9081 129.315 25.4704C129.315 25.0439 129.079 24.7016 128.613 24.4547C128.142 24.2078 127.502 24.0844 126.683 24.0844C125.97 24.0844 125.421 24.2078 125.033 24.4547C124.641 24.7016 124.444 25.0439 124.444 25.4872C124.444 25.9361 124.635 26.284 125.011 26.5253C125.393 26.7666 125.937 26.8901 126.644 26.8901C127.458 26.8901 128.108 26.761 128.591 26.5085Z" fill="#002040"/>
<path d="M134.298 27.1258C133.406 26.357 132.962 25.3021 132.962 23.9441C132.962 22.6142 133.406 21.5649 134.298 20.8017C135.19 20.0329 136.408 19.6514 137.962 19.6514C138.826 19.6514 139.606 19.7804 140.291 20.0386C140.976 20.2967 141.52 20.6614 141.918 21.1384C142.053 21.2955 142.115 21.4526 142.115 21.6097C142.115 21.8679 141.969 22.0923 141.683 22.2887C141.548 22.3785 141.402 22.4234 141.234 22.4234C140.897 22.4234 140.605 22.3 140.369 22.0531C140.095 21.7725 139.752 21.5536 139.343 21.4021C138.933 21.2506 138.478 21.1721 137.968 21.1721C137.031 21.1721 136.301 21.4133 135.785 21.9015C135.269 22.3841 135.011 23.0687 135.011 23.9497C135.011 24.8419 135.269 25.5321 135.785 26.0203C136.301 26.5085 137.031 26.7554 137.968 26.7554C139.017 26.7554 139.887 26.4412 140.588 25.8071C140.874 25.5377 141.161 25.4031 141.436 25.4031C141.638 25.4031 141.812 25.4648 141.957 25.5882C142.21 25.7678 142.339 25.9866 142.339 26.2504C142.339 26.4412 142.261 26.6039 142.103 26.7386C141.537 27.2661 140.919 27.6588 140.252 27.9058C139.584 28.1527 138.821 28.2761 137.968 28.2761C136.408 28.2761 135.19 27.8945 134.298 27.1258Z" fill="#002040"/>
<path d="M144.382 18.0409C144.135 17.8333 144.011 17.564 144.011 17.2385C144.011 16.913 144.135 16.6437 144.382 16.4361C144.628 16.2284 144.943 16.1218 145.33 16.1218C145.717 16.1218 146.031 16.2284 146.289 16.4361C146.542 16.6437 146.671 16.913 146.671 17.2385C146.671 17.564 146.542 17.8333 146.289 18.0409C146.037 18.2486 145.717 18.3552 145.33 18.3552C144.943 18.3496 144.628 18.2486 144.382 18.0409ZM144.595 28.0405C144.421 27.8833 144.331 27.6645 144.331 27.3783V20.5492C144.331 20.2687 144.421 20.0498 144.595 19.8871C144.769 19.73 145.016 19.6514 145.324 19.6514C145.639 19.6514 145.885 19.73 146.071 19.8871C146.256 20.0442 146.351 20.263 146.351 20.5492V27.3783C146.351 27.6589 146.256 27.8777 146.071 28.0405C145.885 28.1976 145.633 28.2761 145.324 28.2761C145.016 28.2761 144.769 28.1976 144.595 28.0405Z" fill="#002040"/>
<path d="M149.247 28.0404C149.067 27.8833 148.977 27.6644 148.977 27.3782V16.1722C148.977 15.8917 149.067 15.6728 149.247 15.5101C149.426 15.353 149.673 15.2744 149.987 15.2744C150.302 15.2744 150.548 15.353 150.728 15.5101C150.908 15.6672 150.997 15.8861 150.997 16.1722V27.3838C150.997 27.6532 150.902 27.872 150.717 28.0348C150.532 28.1975 150.285 28.2817 149.987 28.2817C149.673 28.2761 149.426 28.1975 149.247 28.0404Z" fill="#002040"/>
</g>
<defs>
<linearGradient id="paint0_linear" x1="21.1758" y1="32.4117" x2="9.20407" y2="18.1449" gradientUnits="userSpaceOnUse">
<stop stop-color="#00B395"/>
<stop offset="0.1201" stop-color="#00FFD5"/>
<stop offset="0.3297" stop-color="#41FF93"/>
<stop offset="0.599" stop-color="#90FF45"/>
<stop offset="0.7909" stop-color="#C1FF13"/>
<stop offset="0.8855" stop-color="#D4FF00"/>
<stop offset="0.9521" stop-color="#E6FF6B"/>
<stop offset="1" stop-color="#F2FFB3"/>
</linearGradient>
<linearGradient id="paint1_linear" x1="21.6865" y1="33.0842" x2="7.88056" y2="17.8354" gradientUnits="userSpaceOnUse">
<stop stop-color="#00B395"/>
<stop offset="0.1201" stop-color="#00FFD5"/>
<stop offset="0.3297" stop-color="#41FF93"/>
<stop offset="0.599" stop-color="#90FF45"/>
<stop offset="0.7909" stop-color="#C1FF13"/>
<stop offset="0.8855" stop-color="#D4FF00"/>
<stop offset="0.9521" stop-color="#E6FF6B"/>
<stop offset="1" stop-color="#F2FFB3"/>
</linearGradient>
<linearGradient id="paint2_linear" x1="22.1024" y1="33.8551" x2="6.52128" y2="17.4586" gradientUnits="userSpaceOnUse">
<stop stop-color="#00B395"/>
<stop offset="0.1201" stop-color="#00FFD5"/>
<stop offset="0.3297" stop-color="#41FF93"/>
<stop offset="0.599" stop-color="#90FF45"/>
<stop offset="0.7909" stop-color="#C1FF13"/>
<stop offset="0.8855" stop-color="#D4FF00"/>
<stop offset="0.9521" stop-color="#E6FF6B"/>
<stop offset="1" stop-color="#F2FFB3"/>
</linearGradient>
<linearGradient id="paint3_linear" x1="22.3345" y1="34.7308" x2="5.13095" y2="16.9605" gradientUnits="userSpaceOnUse">
<stop stop-color="#00B395"/>
<stop offset="0.1201" stop-color="#00FFD5"/>
<stop offset="0.3297" stop-color="#41FF93"/>
<stop offset="0.599" stop-color="#90FF45"/>
<stop offset="0.7909" stop-color="#C1FF13"/>
<stop offset="0.8855" stop-color="#D4FF00"/>
<stop offset="0.9521" stop-color="#E6FF6B"/>
<stop offset="1" stop-color="#F2FFB3"/>
</linearGradient>
<linearGradient id="paint4_linear" x1="22.6664" y1="35.345" x2="4.09421" y2="15.9314" gradientUnits="userSpaceOnUse">
<stop stop-color="#00B395"/>
<stop offset="0.1201" stop-color="#00FFD5"/>
<stop offset="0.3297" stop-color="#41FF93"/>
<stop offset="0.599" stop-color="#90FF45"/>
<stop offset="0.7909" stop-color="#C1FF13"/>
<stop offset="0.8855" stop-color="#D4FF00"/>
<stop offset="0.9521" stop-color="#E6FF6B"/>
<stop offset="1" stop-color="#F2FFB3"/>
</linearGradient>
<linearGradient id="paint5_linear" x1="22.9013" y1="35.8299" x2="3.29458" y2="14.5148" gradientUnits="userSpaceOnUse">
<stop stop-color="#00B395"/>
<stop offset="0.1201" stop-color="#00FFD5"/>
<stop offset="0.3297" stop-color="#41FF93"/>
<stop offset="0.599" stop-color="#90FF45"/>
<stop offset="0.7909" stop-color="#C1FF13"/>
<stop offset="0.8855" stop-color="#D4FF00"/>
<stop offset="0.9521" stop-color="#E6FF6B"/>
<stop offset="1" stop-color="#F2FFB3"/>
</linearGradient>
<linearGradient id="paint6_linear" x1="22.9813" y1="36.2355" x2="2.69245" y2="12.8427" gradientUnits="userSpaceOnUse">
<stop stop-color="#00B395"/>
<stop offset="0.1201" stop-color="#00FFD5"/>
<stop offset="0.3297" stop-color="#41FF93"/>
<stop offset="0.599" stop-color="#90FF45"/>
<stop offset="0.7909" stop-color="#C1FF13"/>
<stop offset="0.8855" stop-color="#D4FF00"/>
<stop offset="0.9521" stop-color="#E6FF6B"/>
<stop offset="1" stop-color="#F2FFB3"/>
</linearGradient>
<linearGradient id="paint7_linear" x1="22.9794" y1="36.554" x2="2.27565" y2="11.0397" gradientUnits="userSpaceOnUse">
<stop stop-color="#00B395"/>
<stop offset="0.1201" stop-color="#00FFD5"/>
<stop offset="0.3297" stop-color="#41FF93"/>
<stop offset="0.599" stop-color="#90FF45"/>
<stop offset="0.7909" stop-color="#C1FF13"/>
<stop offset="0.8855" stop-color="#D4FF00"/>
<stop offset="0.9521" stop-color="#E6FF6B"/>
<stop offset="1" stop-color="#F2FFB3"/>
</linearGradient>
<linearGradient id="paint8_linear" x1="23.0005" y1="36.8225" x2="1.94277" y2="9.27327" gradientUnits="userSpaceOnUse">
<stop stop-color="#00B395"/>
<stop offset="0.1201" stop-color="#00FFD5"/>
<stop offset="0.3297" stop-color="#41FF93"/>
<stop offset="0.599" stop-color="#90FF45"/>
<stop offset="0.7909" stop-color="#C1FF13"/>
<stop offset="0.8855" stop-color="#D4FF00"/>
<stop offset="0.9521" stop-color="#E6FF6B"/>
<stop offset="1" stop-color="#F2FFB3"/>
</linearGradient>
<linearGradient id="paint9_linear" x1="23.1326" y1="37.1096" x2="1.5406" y2="7.68298" gradientUnits="userSpaceOnUse">
<stop stop-color="#00B395"/>
<stop offset="0.1201" stop-color="#00FFD5"/>
<stop offset="0.3297" stop-color="#41FF93"/>
<stop offset="0.599" stop-color="#90FF45"/>
<stop offset="0.7909" stop-color="#C1FF13"/>
<stop offset="0.8855" stop-color="#D4FF00"/>
<stop offset="0.9521" stop-color="#E6FF6B"/>
<stop offset="1" stop-color="#F2FFB3"/>
</linearGradient>
<linearGradient id="paint10_linear" x1="23.4487" y1="37.497" x2="0.895351" y2="6.37625" gradientUnits="userSpaceOnUse">
<stop stop-color="#00B395"/>
<stop offset="0.1201" stop-color="#00FFD5"/>
<stop offset="0.3297" stop-color="#41FF93"/>
<stop offset="0.599" stop-color="#90FF45"/>
<stop offset="0.7909" stop-color="#C1FF13"/>
<stop offset="0.8855" stop-color="#D4FF00"/>
<stop offset="0.9521" stop-color="#E6FF6B"/>
<stop offset="1" stop-color="#F2FFB3"/>
</linearGradient>
<linearGradient id="paint11_linear" x1="23.9917" y1="38.0436" x2="-0.111472" y2="5.41842" gradientUnits="userSpaceOnUse">
<stop stop-color="#00B395"/>
<stop offset="0.1201" stop-color="#00FFD5"/>
<stop offset="0.3297" stop-color="#41FF93"/>
<stop offset="0.599" stop-color="#90FF45"/>
<stop offset="0.7909" stop-color="#C1FF13"/>
<stop offset="0.8855" stop-color="#D4FF00"/>
<stop offset="0.9521" stop-color="#E6FF6B"/>
<stop offset="1" stop-color="#F2FFB3"/>
</linearGradient>
<linearGradient id="paint12_linear" x1="24.7981" y1="38.7752" x2="-1.54235" y2="4.87161" gradientUnits="userSpaceOnUse">
<stop stop-color="#00B395"/>
<stop offset="0.1201" stop-color="#00FFD5"/>
<stop offset="0.3297" stop-color="#41FF93"/>
<stop offset="0.599" stop-color="#90FF45"/>
<stop offset="0.7909" stop-color="#C1FF13"/>
<stop offset="0.8855" stop-color="#D4FF00"/>
<stop offset="0.9521" stop-color="#E6FF6B"/>
<stop offset="1" stop-color="#F2FFB3"/>
</linearGradient>
<linearGradient id="paint13_linear" x1="25.8972" y1="39.6788" x2="-3.37652" y2="4.79269" gradientUnits="userSpaceOnUse">
<stop stop-color="#00B395"/>
<stop offset="0.1201" stop-color="#00FFD5"/>
<stop offset="0.3297" stop-color="#41FF93"/>
<stop offset="0.599" stop-color="#90FF45"/>
<stop offset="0.7909" stop-color="#C1FF13"/>
<stop offset="0.8855" stop-color="#D4FF00"/>
<stop offset="0.9521" stop-color="#E6FF6B"/>
<stop offset="1" stop-color="#F2FFB3"/>
</linearGradient>
<clipPath id="clip0">
<rect width="150.997" height="48" fill="white"/>
</clipPath>
</defs>
</svg>
